<?xml version="1.0" standalone="no"?>
<!DOCTYPE svg PUBLIC "-//W3C//DTD SVG 20010904//EN"
 "http://www.w3.org/TR/2001/REC-SVG-20010904/DTD/svg10.dtd">
<svg version="1.0" xmlns="http://www.w3.org/2000/svg"
 width="512.000000pt" height="512.000000pt" viewBox="0 0 512.000000 512.000000"
 preserveAspectRatio="xMidYMid meet">

<g transform="translate(0.000000,512.000000) scale(0.100000,-0.100000)"
fill="#000000" stroke="none">
<path d="M1439 4205 c-44 -24 -59 -71 -59 -182 0 -118 16 -159 73 -187 33 -16
45 -17 77 -7 21 6 50 25 64 42 25 29 26 36 26 156 l0 125 -34 34 c-28 28 -41
34 -77 34 -24 -1 -56 -7 -70 -15z"/>
<path d="M760 4027 c-32 -16 -70 -73 -70 -105 0 -30 74 -172 115 -219 73 -84
205 -34 205 79 0 29 -39 109 -101 206 -28 45 -100 64 -149 39z"/>
<path d="M2134 4021 c-30 -18 -122 -164 -139 -219 -9 -30 10 -84 39 -111 32
-30 94 -38 134 -17 40 21 133 174 139 232 12 101 -87 167 -173 115z"/>
<path d="M1382 3680 c-552 -78 -926 -589 -826 -1132 l16 -88 -53 -57 c-113
-124 -192 -278 -226 -441 -24 -119 -14 -321 22 -432 49 -151 116 -263 224
-371 107 -107 217 -174 371 -225 l85 -29 553 -3 553 -3 35 35 c29 29 34 41 34
80 0 36 -6 52 -29 78 l-29 33 -524 6 c-449 5 -531 8 -583 22 -202 57 -372 210
-446 401 -141 363 71 772 451 871 94 25 235 23 338 -5 45 -12 93 -19 107 -16
42 11 72 48 106 130 165 405 612 608 1026 467 255 -87 464 -313 529 -571 22
-89 37 -115 79 -135 43 -20 65 -16 150 26 164 80 337 54 470 -72 56 -53 97
-119 115 -188 16 -61 54 -95 120 -111 130 -30 235 -116 293 -238 29 -61 32
-75 32 -167 0 -91 -3 -106 -31 -165 -39 -81 -96 -145 -166 -188 -103 -61 -110
-62 -981 -62 l-789 0 -34 -34 c-29 -29 -34 -41 -34 -81 0 -40 5 -52 34 -81
l35 -35 853 3 853 3 67 26 c156 61 284 169 351 296 28 54 44 74 69 84 66 27
206 130 270 197 421 447 281 1170 -278 1428 -142 66 -356 96 -505 71 l-46 -8
-46 79 c-98 169 -229 302 -389 395 -106 61 -153 64 -204 13 -29 -29 -34 -41
-34 -81 0 -40 5 -52 33 -78 18 -18 62 -48 97 -67 78 -42 221 -182 268 -262 18
-31 48 -91 67 -134 45 -104 72 -127 139 -121 28 2 85 12 126 22 155 36 343 -2
484 -96 344 -229 396 -697 112 -996 -38 -40 -72 -73 -76 -73 -4 0 -10 25 -14
55 -14 125 -100 283 -203 374 -56 50 -157 109 -224 130 -30 9 -39 20 -57 64
-69 163 -236 305 -422 356 -90 25 -238 28 -320 6 -30 -8 -55 -13 -55 -12 -1 1
-27 54 -57 117 -118 241 -322 430 -564 522 -96 36 -97 35 29 93 91 42 174 64
274 71 107 8 141 20 164 58 41 67 13 153 -58 177 -88 29 -335 -20 -498 -99
-96 -47 -234 -142 -284 -196 -14 -14 -28 -26 -33 -26 -5 0 -48 41 -95 90 -183
193 -397 291 -663 304 -52 3 -123 1 -158 -4z m252 -244 c125 -24 247 -82 341
-161 36 -31 38 -35 20 -41 -237 -82 -428 -231 -568 -442 -38 -56 -74 -105 -80
-109 -7 -5 -82 -8 -167 -8 -161 0 -236 -12 -339 -57 -29 -12 -48 -15 -54 -9
-18 18 -2 259 23 331 71 210 219 371 416 453 51 21 81 29 189 51 46 9 148 5
219 -8z"/>
<path d="M224 3496 c-29 -29 -34 -41 -34 -79 0 -60 28 -92 132 -151 98 -56
117 -61 162 -46 71 23 103 119 59 178 -11 15 -60 51 -109 79 -113 67 -158 71
-210 19z"/>
<path d="M59 2825 c-29 -16 -59 -70 -59 -107 0 -36 37 -88 75 -104 45 -18 204
-19 249 0 92 39 102 166 16 211 -39 20 -243 21 -281 0z"/>
</g>
</svg>
